<svg xmlns="http://www.w3.org/2000/svg" viewBox="0 0 812 137"><title>fleetbase-logo-svg1</title><path d="M406.33,18.51q13.43-7.85,26.85-15.73a2.84,2.84,0,0,1,3.27.05q27.07,15.72,54.19,31.38a3.2,3.2,0,0,1,1.74,3.18q0,31.23,0,62.46a3.21,3.21,0,0,1-1.87,3.11q-27,15.56-53.87,31.21c-1.69,1-2.84.49-4.24-.32q-13.34-7.66-26.7-15.27c-1.2-.77-2.37-1.6-3.61-2.32Q389,108.6,375.89,101c1.64-.64.87-2.07.88-3.11.06-9,0-17.93.06-26.9,0-.83-.57-1.93.61-2.51.8.55,1.53,1.13,2.33,1.59Q395.36,79.1,411,88.14c5.64,3.27,11.27,6.57,16.93,9.81,4,2.28,8,5.47,12.28.43.07-.07.22-.07.33-.12C447.76,95.2,453.81,90,461,86.74A3.89,3.89,0,0,0,463.25,83c-.11-9.8-.06-19.61,0-29.42a2.42,2.42,0,0,0-1.3-2.55c-8.77-4.87-17.49-9.84-26.23-14.78C434.42,34.74,432.62,34,431,33Q418.67,25.75,406.33,18.51Z" style="fill:#117c7c"/><path d="M375.89,101q13.11,7.64,26.21,15.29c1.24.72,2.41,1.55,3.61,2.32-8.85,5.17-17.73,10.31-26.55,15.54a3.4,3.4,0,0,1-3.93-.07q-26.76-15.56-53.57-31a3.74,3.74,0,0,1-2-3.75q.08-30.69,0-61.38a4,4,0,0,1,2.22-4Q348.52,18.63,375.08,3.1a3.93,3.93,0,0,1,4.56.15c8.87,5.13,17.79,10.18,26.69,15.26Q418.66,25.77,431,33c1.63,1,3.43,1.7,4.69,3.22-.83,1.19-.42,2.55-.43,3.83q-.15,13.11-.18,26.21c0,1.6-.26,2.8-2.09,1.58-4.13-2.73-8.47-5.11-12.77-7.57C406.55,52.49,393,44.5,379.41,36.54a3.91,3.91,0,0,0-4.48,0,107.29,107.29,0,0,1-9.26,5.68,142.76,142.76,0,0,0-16.21,9.38c-1.43.22-1.1,1.35-1.1,2.24q0,14.7,0,29.4c0,1-.36,2.3,1.35,2.36,1.18,1.65,3.31,1.68,4.76,2.73C361.23,93.2,368.78,96.71,375.89,101Z" style="fill:#eb661b"/></svg>